HIERARCHY
ROOT hip
{
	OFFSET 0.000000 0.000000 0.000000 
	CHANNELS 6 Xposition Yposition Zposition Xrotation Zrotation Yrotation
	JOINT abdomen
	{
		OFFSET 0.000000 3.402643 0.000000 
		CHANNELS 3 Xrotation Zrotation Yrotation
		JOINT chest
		{
			OFFSET 0.000000 8.438565 -0.680529 
			CHANNELS 3 Xrotation Zrotation Yrotation
			JOINT neck
			{
				OFFSET 0.000000 10.207942 -0.272212 
				CHANNELS 3 Xrotation Zrotation Yrotation
				JOINT head
				{
					OFFSET 0.000000 3.130431 0.000000 
					CHANNELS 3 Xrotation Zrotation Yrotation
					End Site
					{
						OFFSET 0.000000 3.130435 0.000000 
					}
				}
			}
			JOINT lCollar
			{
				OFFSET 3.470700 6.669187 -0.816635 
				CHANNELS 3 Yrotation Zrotation Xrotation
				JOINT lShldr
				{
					OFFSET 3.198488 0.000000 0.000000 
					CHANNELS 3 Zrotation Yrotation Xrotation
					JOINT lForeArm
					{
						OFFSET 10.139888 0.000000 0.000000 
						CHANNELS 3 Yrotation Zrotation Xrotation
						JOINT lHand
						{
							OFFSET 8.370511 0.000000 0.000000 
							CHANNELS 3 Zrotation Yrotation Xrotation
							End Site
							{
								OFFSET 4.083176 0.000000 0.000000 
							}
						}
					}
				}
			}
			JOINT rCollar
			{
				OFFSET -3.470700 6.669187 -0.816635 
				CHANNELS 3 Yrotation Zrotation Xrotation
				JOINT rShldr
				{
					OFFSET -3.198488 0.000000 0.000000 
					CHANNELS 3 Zrotation Yrotation Xrotation
					JOINT rForeArm
					{
						OFFSET -10.139888 0.000000 0.000000 
						CHANNELS 3 Yrotation Zrotation Xrotation
						JOINT rHand
						{
							OFFSET -8.370511 0.000000 0.000000 
							CHANNELS 3 Zrotation Yrotation Xrotation
							End Site
							{
								OFFSET -4.083176 0.000000 0.000000 
							}
						}
					}
				}
			}
		}
	}
	JOINT lThigh
	{
		OFFSET 5.308129 -1.633274 1.361059 
		CHANNELS 3 Xrotation Zrotation Yrotation
		JOINT lShin
		{
			OFFSET -2.041588 -20.007561 0.000000 
			CHANNELS 3 Xrotation Zrotation Yrotation
			JOINT lFoot
			{
				OFFSET 0.000000 -19.190928 -1.224953 
				CHANNELS 3 Xrotation Yrotation Zrotation
				End Site
				{
					OFFSET 0.000000 -2.449906 4.627600 
				}
			}
		}
	}
	JOINT rThigh
	{
		OFFSET -5.308129 -1.633274 1.361059 
		CHANNELS 3 Xrotation Zrotation Yrotation
		JOINT rShin
		{
			OFFSET 2.041588 -20.007561 0.000000 
			CHANNELS 3 Xrotation Zrotation Yrotation
			JOINT rFoot
			{
				OFFSET 0.000000 -19.190928 -1.224953 
				CHANNELS 3 Xrotation Yrotation Zrotation
				End Site
				{
					OFFSET 0.000000 -2.449906 4.627600 
				}
			}
		}
	}
}
MOTION
Frames: 10
Frame Time: 0.033333
-0.782658 47.824486 -4.521385 -6.837085 1.047189 2.149862 0.000000 0.000000 0.000000 8.995478 0.983845 -0.586305 18.008589 0.130873 -5.220140 28.056873 2.532442 -5.150399 0.161517 -14.640567 9.729843 -67.149872 -55.422077 52.732071 -104.559540 11.176263 3.155672 36.519741 -10.311885 16.166327 1.292814 11.675411 9.943953 58.479477 41.400642 40.233418 114.357101 -11.253786 3.310620 -29.785246 20.954983 32.644569 -0.625669 12.786524 5.851184 20.363716 -2.764846 4.947191 -10.175008 0.822363 -9.133584 0.682103 -13.481699 -10.596756 21.702927 3.063105 3.133168 -13.352429 -0.846472 7.505191 
-0.799646 47.820713 -4.538689 -7.091146 1.095077 2.363806 0.000000 0.000000 0.000000 9.014959 0.964502 -0.618329 17.912510 -0.023080 -5.315649 27.627960 2.612934 -5.231847 0.047959 -14.402409 9.747071 -67.079643 -55.235874 52.308990 -104.570305 11.019132 3.162225 36.462757 -4.710698 14.524100 1.237904 11.439748 9.965917 58.131889 41.512924 39.395966 113.787094 -11.047349 3.308851 -29.535145 15.780564 30.550873 -0.528017 12.714432 5.732478 20.459089 -2.696119 4.883938 -10.158048 0.811729 -9.094958 0.935748 -13.488507 -10.759033 21.722555 2.985158 3.130778 -13.339626 -0.859359 7.552991 
-0.797884 47.773525 -4.552809 -7.227985 1.133501 2.541828 0.000000 0.000000 0.000000 9.014959 0.964502 -0.706220 17.915821 -0.100677 -5.459611 26.960175 2.410017 -5.304008 -0.043420 -14.478621 9.750561 -66.666328 -54.871895 53.019466 -105.769524 11.533882 3.144431 37.432480 -9.735279 16.375179 1.099161 10.869524 9.988519 58.681541 41.801430 41.116158 114.631363 -11.498770 3.292335 -29.159636 21.142962 33.841175 -0.566891 12.676952 5.669085 20.708847 -2.580235 4.848550 -10.234188 0.829070 -9.369513 0.907917 -13.631709 -10.946490 22.270126 3.063326 3.297288 -13.664208 -0.882533 7.481185 
-0.808583 47.744701 -4.569043 -7.248049 1.327204 2.477750 0.000000 0.000000 0.000000 8.857924 0.607897 -0.725479 18.408384 0.104329 -5.499617 26.161346 2.607168 -5.239830 -0.090321 -14.183176 9.526519 -67.093689 -54.124805 52.865082 -106.604797 11.716301 3.162532 34.922482 -12.739085 16.211090 1.230505 11.471802 9.732865 58.146172 42.021969 42.008537 115.101326 -11.765709 3.285429 -28.510946 23.400967 35.161289 -0.791451 12.499750 5.550150 21.114878 -2.559966 4.826089 -10.420160 0.848523 -9.213192 0.604233 -13.864097 -10.977292 22.781235 2.995278 3.309046 -13.841393 -0.896453 7.499050 
-0.830354 47.742310 -4.558372 -7.443443 1.336304 2.511024 0.000000 0.000000 0.000000 8.604020 0.617967 -0.726711 18.994926 -0.213921 -5.347163 26.502415 3.141353 -5.275033 0.072533 -15.095338 9.282500 -65.726456 -53.405155 51.154507 -105.523323 11.332353 3.152666 34.039055 -10.950525 14.968616 1.266125 12.019303 9.470759 58.359596 41.661388 42.165352 113.724487 -11.594343 3.279736 -30.046976 21.531670 34.575333 -0.615906 12.498488 5.507945 21.204699 -2.472550 4.854918 -10.480869 0.845680 -9.205182 0.857588 -13.840862 -11.039343 22.781897 2.956315 3.418700 -13.893595 -0.916162 7.489684 
-0.841678 47.735897 -4.568540 -7.696984 1.190353 2.837215 0.000000 0.000000 0.000000 8.565830 1.023612 -0.597629 18.918840 -0.612798 -5.222178 26.904528 3.199093 -5.592467 0.379351 -16.003504 9.156546 -64.833969 -53.518761 50.448212 -104.886520 11.024892 3.172699 34.313644 -5.988321 13.055817 1.392582 11.157615 9.388614 58.450150 41.662743 41.919556 112.569885 -11.354129 3.267797 -31.563599 16.849661 33.971149 -0.566457 12.634163 5.449093 21.339535 -2.423368 4.630836 -10.483543 0.856625 -9.275681 1.189946 -13.706452 -11.195548 22.673067 3.044050 3.417740 -13.824292 -0.900653 7.474782 
-0.865590 47.734760 -4.596664 -7.677238 1.112983 2.701570 0.000000 0.000000 0.000000 8.370028 0.830900 -0.717467 19.257721 -0.283118 -5.068759 26.275896 3.052256 -5.160707 0.176563 -15.346716 9.023605 -65.274506 -52.431026 51.864021 -106.462341 11.719022 3.153677 36.916283 -9.445474 17.021280 1.324953 11.803371 9.208171 58.222076 41.350544 42.920471 113.808472 -11.796708 3.256591 -30.568403 19.910955 33.954357 -0.713306 12.779536 5.580181 21.644875 -2.414142 4.603994 -10.607408 0.849267 -9.087428 1.160307 -13.576184 -10.975791 22.652313 3.014541 3.547257 -13.866064 -0.890888 7.436833 
-0.856653 47.745087 -4.603673 -7.716136 1.045140 2.807642 0.000000 0.000000 0.000000 8.223548 0.840874 -0.669365 19.645630 0.001562 -5.016073 25.804579 2.938830 -5.135311 0.269799 -15.925237 8.780409 -65.162758 -51.933025 52.425201 -107.444649 12.091554 3.147367 35.271244 -13.013803 16.728848 1.317143 12.609771 8.963671 57.207466 40.588291 42.777096 114.573624 -11.959881 3.261252 -29.054214 23.896324 34.930676 -0.674444 12.857963 5.626227 21.533918 -2.413439 4.532838 -10.525216 0.840500 -9.089972 1.199634 -13.528842 -11.072920 22.539516 3.150693 3.194906 -13.680552 -0.880237 7.406247 
-0.842306 47.761940 -4.616460 -7.696530 1.016155 2.724030 0.000000 0.000000 0.000000 8.018333 0.783283 -0.631729 19.436798 0.176502 -4.844585 26.380672 2.883042 -4.925400 0.221445 -15.446303 8.509895 -66.694420 -50.428303 51.002541 -106.426346 11.423566 3.167737 32.994579 -11.497884 16.055143 1.344712 12.560106 8.694304 57.806473 40.732197 42.724571 112.947533 -11.674127 3.260181 -29.951488 23.951088 33.388672 -0.566780 12.855601 5.640665 21.246479 -2.453557 4.602503 -10.354040 0.841041 -9.172044 1.200588 -13.514198 -11.002466 22.329218 3.170618 3.203523 -13.512341 -0.873534 7.406665 
-0.810217 47.809769 -4.627786 -8.067282 0.841203 2.644459 0.000000 0.000000 0.000000 8.096840 0.957161 -0.684005 19.496357 0.045366 -4.618820 26.080807 3.083495 -4.869355 0.355978 -16.373251 8.638061 -65.379417 -50.294987 50.255016 -105.622070 11.160854 3.167108 36.306641 -5.184433 16.398472 1.317115 12.776055 8.804746 57.772015 41.274681 42.354156 111.760529 -11.377389 3.266353 -29.634350 15.674488 30.658377 -0.088497 13.027388 5.811760 21.074917 -2.373353 4.265974 -10.350593 0.832370 -8.960041 1.805071 -13.285370 -11.025170 21.673576 3.287773 3.130894 -13.108141 -0.825586 7.347849 
